<?xml version="1.0" encoding="utf-8"?>
<svg viewBox="-13.986007690429688 -1.7482452392578125 250 250" width="500px" height="500px" xmlns="http://www.w3.org/2000/svg">
  <defs>
    <pattern id="pattern-0" x="0" y="0" width="20" height="20" patternUnits="userSpaceOnUse" viewBox="0 0 100 100">
      <path d="M 0 0 L 50 0 L 50 100 L 0 100 Z" style="fill: black;"/>
    </pattern>
  </defs>
  <path d="M 96.136 166.991 C 84.03 166.991 74.014 161.109 66.094 149.353 C 58.155 137.57 54.185 122.18 54.185 103.174 C 54.185 84.171 56.918 66.837 62.38 51.17 C 67.842 35.53 75.644 22.798 85.785 12.981 C 95.928 3.163 106.755 -1.748 118.261 -1.748 C 129.767 -1.748 139.064 1.373 146.147 7.614 C 153.229 13.832 156.771 21.261 156.771 29.898 C 156.771 38.562 154.633 45.925 150.354 51.991 C 146.183 51.991 141.503 50.9 136.314 48.717 C 131.106 46.536 127.2 43.898 124.598 40.798 L 128.311 17.17 C 125.179 14.837 121.083 13.67 116.022 13.67 C 108.082 13.67 101.062 21.807 94.962 38.084 C 88.846 54.378 85.785 74.44 85.785 98.263 C 85.785 113.996 87.963 125.405 92.313 132.498 C 96.664 139.59 101.965 143.131 108.21 143.131 C 110.083 143.131 111.942 142.939 113.79 142.557 C 113.334 141.431 112.882 140.289 112.436 139.133 C 108.816 129.796 106.939 121.301 106.806 113.644 C 106.589 101.23 109.888 90.885 116.7 82.617 C 123.514 74.348 131.266 69.525 139.951 68.15 C 148.637 66.779 155.429 68.405 160.322 73.02 C 165.21 77.658 167.718 83.399 167.838 90.244 C 167.955 97.108 166.275 104.413 162.789 112.157 C 159.289 119.902 155.775 126.187 152.24 131.012 L 146.94 138.219 C 148.345 140.613 150.042 143.702 152.025 147.479 C 154.021 151.258 156.732 157.788 160.165 167.078 C 163.608 176.344 165.386 184.081 165.494 190.287 C 165.766 205.952 161.866 219.008 153.789 229.453 C 145.716 239.881 135.812 246.023 124.076 247.876 C 116.178 249.125 109.611 247.261 104.379 242.29 C 99.145 237.298 96.212 232.813 95.578 228.819 C 96.728 223.249 99.277 216.785 103.224 209.432 C 107.172 202.099 110.761 197.442 113.998 195.457 C 119.85 199.941 125.421 211.095 130.702 228.914 C 138.034 227.424 141.602 221.053 141.407 209.799 C 141.3 203.592 139.443 196.236 135.838 187.731 C 132.244 179.202 128.349 171.308 124.146 164.042 C 123.262 162.511 122.388 160.934 121.53 159.311 C 119.023 160.785 116.213 162.177 113.101 163.491 C 107.508 165.822 101.854 166.991 96.136 166.991 Z M 151.144 112.018 C 152.634 109.67 153.973 106.889 155.164 103.677 C 156.354 100.443 156.92 97.152 156.864 93.811 C 156.804 90.464 155.396 87.865 152.647 86.012 C 149.907 84.157 146.646 83.531 142.861 84.127 C 139.079 84.725 135.947 86.488 133.465 89.421 C 130.968 92.355 129.752 95.571 129.811 99.07 C 129.873 102.59 130.759 106.544 132.473 110.927 C 134.183 115.332 135.862 118.953 137.506 121.795 L 140.111 126.035 C 141.234 125.041 142.98 123.051 145.357 120.054 C 147.73 117.066 149.663 114.385 151.144 112.018 Z" style="white-space: pre; fill: #0092CA;"/>
</svg>
